<svg xmlns="http://www.w3.org/2000/svg" enable-background="new 0 0 64 64" viewBox="0 0 64 64"><path d="M32 41.57c-3.71 0-6.72-3.02-6.72-6.73 0-3.71 3.02-6.72 6.72-6.72 3.71 0 6.73 3.02 6.73 6.72C38.73 38.55 35.71 41.57 32 41.57zM32 30.06c-2.64 0-4.79 2.15-4.79 4.78 0 2.64 2.15 4.79 4.79 4.79 2.64 0 4.79-2.15 4.79-4.79C36.79 32.21 34.64 30.06 32 30.06zM43.82 55.91H20.18c-.54 0-.97-.43-.97-.97 0-7.06 5.74-12.8 12.79-12.8 7.05 0 12.79 5.74 12.79 12.8C44.79 55.48 44.36 55.91 43.82 55.91zM21.19 53.98h21.61c-.49-5.54-5.15-9.89-10.81-9.89C26.34 44.08 21.68 48.44 21.19 53.98zM32 25.35c-.54 0-.97-.43-.97-.97v-6.22c0-.54.43-.97.97-.97.54 0 .97.43.97.97v6.22C32.97 24.91 32.54 25.35 32 25.35zM32 16c-2.18 0-3.96-1.78-3.96-3.96 0-2.18 1.78-3.96 3.96-3.96 2.18 0 3.96 1.78 3.96 3.96C35.96 14.23 34.18 16 32 16zM32 10.02c-1.11 0-2.02.91-2.02 2.02 0 1.11.91 2.02 2.02 2.02 1.11 0 2.02-.91 2.02-2.02C34.02 10.93 33.11 10.02 32 10.02zM16.29 50h-6.22c-.54 0-.97-.43-.97-.97s.43-.97.97-.97h6.22c.54 0 .97.43.97.97S16.83 50 16.29 50zM3.96 52.99C1.78 52.99 0 51.21 0 49.03c0-2.18 1.78-3.96 3.96-3.96s3.96 1.78 3.96 3.96C7.92 51.21 6.14 52.99 3.96 52.99zM3.96 47.01c-1.11 0-2.02.91-2.02 2.02s.91 2.02 2.02 2.02 2.02-.91 2.02-2.02S5.07 47.01 3.96 47.01zM53.93 50h-6.22c-.54 0-.97-.43-.97-.97s.43-.97.97-.97h6.22c.54 0 .97.43.97.97S54.47 50 53.93 50zM60.04 52.99c-2.18 0-3.96-1.78-3.96-3.96 0-2.18 1.78-3.96 3.96-3.96 2.18 0 3.96 1.78 3.96 3.96C64 51.21 62.22 52.99 60.04 52.99zM60.04 47.01c-1.11 0-2.02.91-2.02 2.02s.91 2.02 2.02 2.02c1.11 0 2.02-.91 2.02-2.02S61.15 47.01 60.04 47.01z"/></svg>