<svg xmlns="http://www.w3.org/2000/svg" width="225.736" height="491.404"><path d="M113.129 80.035C135.23 80.035 153.147 62.119 153.147 40.017 153.147 17.918 135.23 0 113.129 0 91.0312 0 73.1122 17.918 73.1122 40.017 73.1122 62.119 91.0312 80.035 113.129 80.035zM107.212 333.911L107.228 472.514C107.228 497.7 69.4942 497.7 69.4942 472.514L69.4782 334.87 18.8082 334.87 72.9782 146.923 64.5682 146.923 33.0582 252.95C25.5582 276.075-6.19176 266.575 1.07224 241.812L36.0582 126.623C39.8082 113.487 56.4212 90.2 85.1762 90.2L111.691 90.2 111.691 90.2 140.228 90.2C168.728 90.2 185.415 113.683 189.728 126.623L224.728 241.7C231.728 266.45 200.228 276.7 192.728 252.575L161.228 146.923 152.122 146.923 206.728 334.87 155.978 334.87 155.978 472.7C155.978 497.7 118.401 497.575 118.401 472.7L118.401 333.911 107.212 333.911z"/></svg>